<?xml version="1.0" standalone="no"?>
<!DOCTYPE svg PUBLIC "-//W3C//DTD SVG 20010904//EN"
 "http://www.w3.org/TR/2001/REC-SVG-20010904/DTD/svg10.dtd">
<svg version="1.0" xmlns="http://www.w3.org/2000/svg"
 width="231.000000pt" height="221.000000pt" viewBox="0 0 231.000000 221.000000"
 preserveAspectRatio="xMidYMid meet">
<g transform="translate(0.000000,221.000000) scale(0.050000,-0.050000)"
fill="#000000" stroke="none">
<path d="M0 2210 l0 -2210 2310 0 2310 0 0 2210 0 2210 -2310 0 -2310 0 0
-2210z m2120 805 c0 -3 -153 -158 -340 -345 l-340 -340 0 345 0 345 340 0
c187 0 340 -2 340 -5z m1020 -10 c0 -9 -189 -204 -419 -434 l-420 -419 420
-408 c230 -224 419 -416 419 -426 0 -10 -147 -18 -335 -18 l-336 0 -249 250
c-277 278 -260 267 -324 205 -116 -113 -118 -102 65 -286 l168 -169 -344 0
-345 0 0 345 0 345 515 515 515 515 335 0 c184 0 335 -7 335 -15z"/>
</g>
</svg>
