<?xml version="1.0" standalone="no"?>
<!DOCTYPE svg PUBLIC "-//W3C//DTD SVG 20010904//EN"
 "http://www.w3.org/TR/2001/REC-SVG-20010904/DTD/svg10.dtd">
<svg version="1.0" xmlns="http://www.w3.org/2000/svg"
 width="300.000000pt" height="300.000000pt" viewBox="0 0 300.000000 300.000000"
 preserveAspectRatio="xMidYMid meet">
<g transform="translate(0.000000,300.000000) scale(0.100000,-0.100000)"
fill="#fff" stroke="none">
<path d="M1451 2964 c-111 -30 -214 -107 -299 -222 -61 -82 -90 -140 -131
-257 -93 -263 -101 -662 -20 -1080 16 -82 24 -104 46 -123 19 -17 34 -22 52
-18 76 16 230 35 331 41 103 5 165 2 362 -21 52 -6 58 -5 80 19 26 28 115 291
151 447 31 136 31 424 -1 590 -38 202 -95 348 -178 459 -102 136 -259 202
-393 165z"/>
<path d="M1780 909 c-30 -5 -192 -26 -359 -48 -167 -23 -305 -42 -307 -44 -6
-6 18 -287 32 -371 56 -335 274 -490 555 -396 152 52 226 149 248 329 15 115
-11 370 -50 500 -14 46 -16 46 -119 30z"/>
</g>
</svg>
